<svg id="Слой_1" data-name="Слой 1" xmlns="http://www.w3.org/2000/svg" viewBox="0 0 27.36 27.36"><defs><style>.cls-1{fill:#009fe3;}.cls-2{fill:#fff;}</style></defs><circle class="cls-1" cx="13.68" cy="13.68" r="13.68"/><path class="cls-2" d="M21.3,10.32H9.88a1.32,1.32,0,0,0-1.31,1.32v7.9a1.32,1.32,0,0,0,1.31,1.32H21.3a1.32,1.32,0,0,0,1.31-1.32v-7.9A1.32,1.32,0,0,0,21.3,10.32Zm0,1.32v1.12c-.62.5-1.6,1.28-3.7,2.92-.46.36-1.37,1.24-2,1.23s-1.55-.87-2-1.23c-2.1-1.64-3.08-2.42-3.7-2.92V11.64ZM9.88,19.54V14.45l2.88,2.27c.6.47,1.65,1.51,2.83,1.5s2.21-1,2.83-1.5l2.88-2.27v5.09Z" transform="translate(-1.91 -1.91)"/></svg>