<svg id="Слой_1" data-name="Слой 1" xmlns="http://www.w3.org/2000/svg" viewBox="0 0 27.36 27.36"><defs><style>.cls-1{fill:#1877f2;}.cls-2{fill:#fff;}</style></defs><path class="cls-1" d="M29.27,15.59A13.68,13.68,0,1,0,13.45,29.11V19.55H10v-4h3.47v-3c0-3.43,2.05-5.33,5.17-5.33a20.72,20.72,0,0,1,3.06.27v3.37H20A2,2,0,0,0,17.73,13v2.57h3.79l-.6,4H17.73v9.56A13.69,13.69,0,0,0,29.27,15.59Z" transform="translate(-1.91 -1.91)"/><path class="cls-2" d="M20.92,19.55l.6-4H17.73V13A2,2,0,0,1,20,10.89h1.72V7.52a20.72,20.72,0,0,0-3.06-.27c-3.12,0-5.17,1.9-5.17,5.33v3H10v4h3.47v9.56a14.39,14.39,0,0,0,4.28,0V19.55Z" transform="translate(-1.91 -1.91)"/></svg>