<?xml version="1.0" ?><!DOCTYPE svg  PUBLIC '-//W3C//DTD SVG 1.1//EN'  'http://www.w3.org/Graphics/SVG/1.1/DTD/svg11.dtd'><svg enable-background="new 0 0 512 512" id="Layer_1" version="1.1" viewBox="0 0 512 512" xml:space="preserve" xmlns="http://www.w3.org/2000/svg" xmlns:xlink="http://www.w3.org/1999/xlink"><circle cx="256" cy="256" fill="#31C139" id="ellipse" r="256"/><path d="M256,123.5c40.7,0.4,78.2,11,110.8,36.2c22,16.9,38.2,38.2,45.5,65.4c8.5,31.9,2.4,61.3-15.8,88.5  c-13,19.3-30.2,34.5-47.9,49.2c-28.5,23.6-59.1,44.1-91.7,61.6c-2.9,1.5-5.9,2.9-9,3.8c-5.1,1.4-8.7-1.9-7.8-7.1  c0.4-2.5,1.7-4.9,2.3-7.4c1.6-7.7,3.5-15.4,4.4-23.3c0.7-6-2.5-8.6-8.5-9.1c-37-3.4-70.6-15.7-99-40c-24.6-21-39.9-47.4-42.7-79.9  c-2.4-28.2,6-53.5,23.1-75.9c23.3-30.4,54.8-47.8,91.4-56.8C225.7,125,240.7,123.3,256,123.5z M253.4,244.8c1.1,1.4,1.7,2,2.1,2.6  c9.7,13.2,19.4,26.4,29.2,39.6c2.9,3.9,6.6,5.4,10.3,4.2c3.7-1.2,5.8-4.2,5.8-9c0-20.5,0-41-0.1-61.6c0-5.1-3.7-8.8-8.4-8.8  c-4.7,0-8.3,3.9-8.3,9.2c0,11.2,0,22.4-0.1,33.7c0,1-0.2,1.9-0.4,3.6c-1.1-1.3-1.7-2.1-2.2-2.8c-9.5-12.9-18.9-25.8-28.4-38.6  c-3.3-4.4-6.4-5.8-10.4-4.6c-4.1,1.3-5.9,4.4-5.9,10c-0.1,19.7-0.1,39.4-0.1,59.1c0,6.2,3.3,9.9,8.4,10c5.2,0.1,8.5-3.6,8.6-9.7  c0.1-7.5-0.1-15.1-0.1-22.6C253.4,254.7,253.4,250.2,253.4,244.8z M328.9,228.7c7.3,0,14.3,0,21.4,0c5.9,0,9.7-3.3,9.8-8.2  c0.1-5.2-3.6-8.8-9.6-8.8c-9.6-0.1-19.1-0.1-28.7,0c-6.8,0.1-9.9,3.2-10,10.2c-0.1,6,0,12,0,18.1c0,14-0.1,27.9-0.1,41.9  c0,6.5,3.1,9.6,9.5,9.6c10.1,0,20.2,0,30.4,0c4.1,0,6.8-2,8.2-5.6c2.1-5.3-2.3-11.1-8.4-11.2c-7.5-0.1-15,0-22.6,0  c0-5.1,0-9.6,0-14.5c7.6,0,15,0,22.3,0c5.2,0,8.8-3.4,9-8.1c0.2-4.9-3.4-8.5-8.9-8.7c-2.3-0.1-4.6,0-7,0c-5.1,0-10.3,0-15.4,0  C328.9,238.1,328.9,233.7,328.9,228.7z M169,274.7c0-2.1,0-3.7,0-5.3c0-16,0-32-0.1-48c0-5.9-3.5-9.6-8.4-9.6  c-4.9,0-8.3,3.8-8.3,9.7c-0.1,20.1-0.1,40.2-0.1,60.3c0,6.4,3.2,9.5,9.6,9.6c9.7,0,19.4,0,29.1,0c5.9,0,9.6-3.2,9.7-8.2  c0.1-5-4-8.4-10-8.5C183.6,274.7,176.7,274.7,169,274.7z M208,251.4c0,0-0.1,0-0.1,0c0,10.1,0,20.2,0,30.4c0,5.8,3.4,9.5,8.4,9.6  c5,0,8.4-3.6,8.4-9.4c0-20.4-0.1-40.7-0.2-61.1c0-1.7-0.4-3.6-1.3-5c-2.1-3.4-5.4-4.5-9.2-3.5c-3.7,1-5.9,4.1-6,8.8  C208,231.2,208,241.3,208,251.4z" fill="#FFFFFF" id="logo"/></svg>