<svg id="Слой_1" data-name="Слой 1" xmlns="http://www.w3.org/2000/svg" xmlns:xlink="http://www.w3.org/1999/xlink" viewBox="0 0 25.26 25.26"><defs><style>.cls-1,.cls-2{fill-rule:evenodd;}.cls-1{fill:url(#Новый_образец_градиентной_залив);}.cls-2{fill:#fff;}</style><linearGradient id="Новый_образец_градиентной_залив" x1="15.59" y1="29.76" x2="15.59" y2="4.51" gradientTransform="matrix(1, 0, 0, -1, 0, 32.72)" gradientUnits="userSpaceOnUse"><stop offset="0" stop-color="#00b2ff"/><stop offset="1" stop-color="#006aff"/></linearGradient></defs><g id="Messenger"><path id="Bubble_Solid" data-name="Bubble Solid" class="cls-1" d="M15.59,3C8.48,3,3,8.17,3,15.21a12,12,0,0,0,4,9.06,1.06,1.06,0,0,1,.34.72l.07,2.25a1,1,0,0,0,1.42.89l2.5-1.1a1,1,0,0,1,.67-.05,14.12,14.12,0,0,0,3.66.48c7.12,0,12.63-5.21,12.63-12.25S22.71,3,15.59,3Z" transform="translate(-2.96 -2.96)"/><path id="Bolt" class="cls-2" d="M8,18.79l3.71-5.88a1.9,1.9,0,0,1,2.74-.51l2.95,2.22a.77.77,0,0,0,.91,0l4-3a.6.6,0,0,1,.87.8l-3.7,5.88a1.9,1.9,0,0,1-2.74.51l-3-2.22a.76.76,0,0,0-.92,0l-4,3A.6.6,0,0,1,8,18.79Z" transform="translate(-2.96 -2.96)"/></g></svg>