<svg id="Слой_1" data-name="Слой 1" xmlns="http://www.w3.org/2000/svg" xmlns:xlink="http://www.w3.org/1999/xlink" viewBox="0 0 27.36 27.36"><defs><style>.cls-1{fill:url(#Безымянный_градиент_3);}.cls-2{fill:#fff;}</style><linearGradient id="Безымянный_градиент_3" x1="-281.92" y1="231.15" x2="-283.9" y2="226.54" gradientTransform="matrix(3.47, 0, 0, -3.47, 995.97, 806.4)" gradientUnits="userSpaceOnUse"><stop offset="0" stop-color="#37aee2"/><stop offset="1" stop-color="#1e96c8"/></linearGradient></defs><circle class="cls-1" cx="13.68" cy="13.68" r="13.68"/><path class="cls-2" d="M21,9.43,7.24,14.79a.5.5,0,0,0,0,1l3.49,1,1.31,4.14a.59.59,0,0,0,1,.24l1.81-1.84,3.55,2.6a.74.74,0,0,0,1.16-.44L22,10.23A.7.7,0,0,0,21,9.43Zm-1.72,2.49-6.4,5.65a.39.39,0,0,0-.11.22L12.52,20a.07.07,0,0,1-.13,0l-1-3.26a.34.34,0,0,1,.15-.4l7.55-4.68A.17.17,0,0,1,19.28,11.92Z" transform="translate(-1.91 -1.91)"/></svg>