<svg id="Слой_1" data-name="Слой 1" xmlns="http://www.w3.org/2000/svg" viewBox="0 0 27.36 27.36"><defs><style>.cls-1{fill:#1da1f2;}.cls-2{fill:#fff;}</style></defs><g id="Dark_Blue" data-name="Dark Blue"><circle class="cls-1" cx="13.68" cy="13.68" r="13.68"/></g><g id="Logo_FIXED" data-name="Logo — FIXED"><path class="cls-2" d="M13.09,22.81a9.32,9.32,0,0,0,9.38-9.39V13a6.84,6.84,0,0,0,1.64-1.71,6.52,6.52,0,0,1-1.89.52A3.35,3.35,0,0,0,23.67,10a6.62,6.62,0,0,1-2.09.8A3.3,3.3,0,0,0,15.87,13a3.08,3.08,0,0,0,.09.75,9.37,9.37,0,0,1-6.8-3.45A3.34,3.34,0,0,0,8.72,12a3.28,3.28,0,0,0,1.47,2.74,3.21,3.21,0,0,1-1.5-.41v0a3.31,3.31,0,0,0,2.65,3.24,3.51,3.51,0,0,1-.87.11,3.26,3.26,0,0,1-.62-.06A3.3,3.3,0,0,0,12.93,20a6.64,6.64,0,0,1-4.1,1.4,6.85,6.85,0,0,1-.79,0,9.27,9.27,0,0,0,5.05,1.49" transform="translate(-1.91 -1.91)"/></g></svg>