<svg id="Слой_1" data-name="Слой 1" xmlns="http://www.w3.org/2000/svg" viewBox="0 0 27.36 27.36"><defs><style>.cls-1{fill:#7360f2;}.cls-2{fill:none;}.cls-3{fill:#fff;}</style></defs><circle class="cls-1" cx="13.68" cy="13.68" r="13.68"/><path class="cls-2" d="M21.26,10.25c-.36-.33-1.92-1.31-5.19-1.33,0,0-3.86-.25-5.73,1.45-1.05,1-1.4,2.56-1.44,4.43s-.24,5.44,3.18,6.39c0,0,0,2.66,0,2.89s0,.27.12.3a.3.3,0,0,0,.25-.11c.55-.54,2.3-2.66,2.3-2.66a14.43,14.43,0,0,0,4.42-.37,4,4,0,0,0,3.47-3.88C23.08,13.75,22.47,11.28,21.26,10.25Zm-1.42,8.52h0a3.34,3.34,0,0,1-.67.82h0a1.38,1.38,0,0,1-.68.33h-.1a.7.7,0,0,1-.29,0h0A10.27,10.27,0,0,1,16.21,19a11.47,11.47,0,0,1-1.57-1c-.24-.2-.48-.41-.7-.63l0,0,0,0,0,0,0,0a8.47,8.47,0,0,1-.63-.7,11.47,11.47,0,0,1-1-1.57,10.27,10.27,0,0,1-.87-1.87h0a.92.92,0,0,1,0-.29.34.34,0,0,1,0-.1,1.38,1.38,0,0,1,.33-.68h0a3.34,3.34,0,0,1,.82-.67h0a.62.62,0,0,1,.8.13s.42.5.6.75a9.1,9.1,0,0,1,.51.8.69.69,0,0,1-.13.89l-.4.33a.61.61,0,0,0-.18.47,4.21,4.21,0,0,0,2.84,2.84.61.61,0,0,0,.47-.18l.33-.4a.71.71,0,0,1,.89-.13,9.1,9.1,0,0,1,.8.51c.25.18.75.6.75.6A.62.62,0,0,1,19.84,18.77Zm-3.76-6.42a.22.22,0,0,1-.2-.24.21.21,0,0,1,.23-.2,3.13,3.13,0,0,1,2.19,1A3,3,0,0,1,19.07,15a.21.21,0,0,1-.22.21h0a.22.22,0,0,1-.22-.22A2.49,2.49,0,0,0,18,13.17,2.71,2.71,0,0,0,16.08,12.35ZM18,14.64a.22.22,0,0,1-.21.23h0a.22.22,0,0,1-.21-.21,1,1,0,0,0-1.1-1.14.22.22,0,0,1,0-.44A1.47,1.47,0,0,1,18,14.64Zm2.05,1h0a.22.22,0,0,1-.22-.22,4.25,4.25,0,0,0-1.17-3.11,4,4,0,0,0-2.9-1.14A.22.22,0,0,1,15.5,11a.21.21,0,0,1,.21-.22h0a4.43,4.43,0,0,1,3.19,1.27,4.6,4.6,0,0,1,1.31,3.42A.22.22,0,0,1,20,15.69Z" transform="translate(-1.91 -1.91)"/><path class="cls-3" d="M22.16,9.37c-.43-.39-2.16-1.65-6-1.66,0,0-4.55-.28-6.77,1.75-1.23,1.24-1.67,3-1.71,5.29s-.11,6.43,3.94,7.57h0v1.74s0,.7.43.84.89-.36,1.43-.93c.29-.32.7-.78,1-1.14a15.62,15.62,0,0,0,5.14-.38,5,5,0,0,0,4.23-4.78C24.37,13.34,23.59,10.61,22.16,9.37Zm.47,8a4,4,0,0,1-3.47,3.88,14.43,14.43,0,0,1-4.42.37s-1.75,2.12-2.3,2.66a.3.3,0,0,1-.25.11c-.1,0-.12-.14-.12-.3s0-2.89,0-2.89c-3.42-1-3.22-4.52-3.18-6.39s.39-3.4,1.44-4.43c1.87-1.7,5.73-1.45,5.73-1.45,3.27,0,4.83,1,5.19,1.33C22.47,11.28,23.08,13.75,22.63,17.36Z" transform="translate(-1.91 -1.91)"/><path class="cls-3" d="M16.21,13.29a.23.23,0,0,0,.21.23,1,1,0,0,1,1.1,1.14.22.22,0,0,0,.21.21h0a.22.22,0,0,0,.21-.23,1.47,1.47,0,0,0-1.51-1.56A.23.23,0,0,0,16.21,13.29Z" transform="translate(-1.91 -1.91)"/><path class="cls-3" d="M18.63,15a.22.22,0,0,0,.22.22h0a.21.21,0,0,0,.22-.21,3,3,0,0,0-.77-2.15,3.13,3.13,0,0,0-2.19-1,.21.21,0,0,0-.23.2.22.22,0,0,0,.2.24,2.71,2.71,0,0,1,1.9.82A2.49,2.49,0,0,1,18.63,15Z" transform="translate(-1.91 -1.91)"/><path class="cls-3" d="M15.72,10.78h0a.21.21,0,0,0-.21.22.22.22,0,0,0,.21.22,4,4,0,0,1,2.9,1.14,4.25,4.25,0,0,1,1.17,3.11.22.22,0,0,0,.22.22h0a.22.22,0,0,0,.22-.22,4.6,4.6,0,0,0-1.31-3.42A4.43,4.43,0,0,0,15.72,10.78Z" transform="translate(-1.91 -1.91)"/><path class="cls-3" d="M19.71,18s-.5-.42-.75-.6a9.1,9.1,0,0,0-.8-.51.71.71,0,0,0-.89.13l-.33.4a.61.61,0,0,1-.47.18,4.21,4.21,0,0,1-2.84-2.84.61.61,0,0,1,.18-.47l.4-.33a.69.69,0,0,0,.13-.89,9.1,9.1,0,0,0-.51-.8c-.18-.25-.6-.75-.6-.75a.62.62,0,0,0-.8-.13h0a3.34,3.34,0,0,0-.82.67h0a1.38,1.38,0,0,0-.33.68.34.34,0,0,0,0,.1.92.92,0,0,0,0,.29h0A10.27,10.27,0,0,0,12.18,15a11.47,11.47,0,0,0,1,1.57,8.47,8.47,0,0,0,.63.7l0,0,0,0,0,0,0,0c.22.22.46.43.7.63a11.47,11.47,0,0,0,1.57,1,10.27,10.27,0,0,0,1.87.87h0a.7.7,0,0,0,.29,0h.1a1.38,1.38,0,0,0,.68-.33h0a3.34,3.34,0,0,0,.67-.82h0A.62.62,0,0,0,19.71,18Z" transform="translate(-1.91 -1.91)"/></svg>