<svg id="Слой_1" data-name="Слой 1" xmlns="http://www.w3.org/2000/svg" viewBox="0 0 27.36 27.36"><defs><style>.cls-1{fill:#44678d;}.cls-2{fill:#fff;}</style></defs><circle class="cls-1" cx="13.68" cy="13.68" r="13.68"/><path class="cls-2" d="M10.31,12.42a12.87,12.87,0,0,0,1.88,3.28,1.4,1.4,0,0,0,.38.35.29.29,0,0,0,.48-.14,3.88,3.88,0,0,0,.17-1c0-.68,0-1.12,0-1.8a.86.86,0,0,0-.81-.92c-.19,0-.21-.2-.09-.36a1.25,1.25,0,0,1,1-.41c.64,0,1.29,0,1.93,0a3.44,3.44,0,0,1,.78.08.7.7,0,0,1,.57.64,2.19,2.19,0,0,1,0,.51c0,.74-.05,1.48-.06,2.21a4.21,4.21,0,0,0,.08.87c.09.39.36.49.63.21a9.73,9.73,0,0,0,.94-1.18,12.05,12.05,0,0,0,1.25-2.42c.17-.43.3-.53.77-.53H22.9a1.76,1.76,0,0,1,.46.06.4.4,0,0,1,.28.52A4.32,4.32,0,0,1,22.86,14c-.54.76-1.11,1.51-1.66,2.26-.07.1-.13.2-.19.3a.63.63,0,0,0,.11.9c.48.49,1,1,1.46,1.47a8.79,8.79,0,0,1,.92,1.19A.68.68,0,0,1,23,21.2c-.39.06-2.34,0-2.44,0a1.88,1.88,0,0,1-1.35-.54c-.41-.39-.79-.83-1.18-1.24l-.38-.35c-.33-.24-.64-.19-.79.19a7.92,7.92,0,0,0-.25,1.25.67.67,0,0,1-.7.65,6.48,6.48,0,0,1-3.54-.67,7.35,7.35,0,0,1-2.35-2A25,25,0,0,1,7.4,14.16c0-.08-.8-1.69-.82-1.77a.45.45,0,0,1,.21-.58c.14-.05,2.64,0,2.68,0A.87.87,0,0,1,10.31,12.42Z" transform="translate(-1.91 -1.91)"/></svg>